<mxfile host="app.diagrams.net" modified="2023-04-23T17:58:32.549Z" agent="Mozilla/5.0 (Windows NT 10.0; Win64; x64; rv:109.0) Gecko/20100101 Firefox/111.0" etag="HFJK8BLSE8y_yXrUTu-S" version="21.1.8" type="device">
  <diagram name="Page-1" id="13e1069c-82ec-6db2-03f1-153e76fe0fe0">
    <mxGraphModel dx="1434" dy="782" grid="1" gridSize="10" guides="1" tooltips="1" connect="1" arrows="1" fold="1" page="1" pageScale="1" pageWidth="1100" pageHeight="850" background="none" math="0" shadow="0">
      <root>
        <mxCell id="0" />
        <mxCell id="1" parent="0" />
        <mxCell id="DgYxm51xzqyq3N8vLG9s-5" style="edgeStyle=orthogonalEdgeStyle;rounded=0;orthogonalLoop=1;jettySize=auto;html=1;" edge="1" parent="1" source="DgYxm51xzqyq3N8vLG9s-1">
          <mxGeometry relative="1" as="geometry">
            <mxPoint x="190" y="160" as="targetPoint" />
          </mxGeometry>
        </mxCell>
        <mxCell id="DgYxm51xzqyq3N8vLG9s-1" value="&lt;div&gt;Клиент&lt;/div&gt;" style="shape=umlActor;verticalLabelPosition=bottom;verticalAlign=top;html=1;outlineConnect=0;" vertex="1" parent="1">
          <mxGeometry x="175" y="40" width="30" height="60" as="geometry" />
        </mxCell>
        <mxCell id="DgYxm51xzqyq3N8vLG9s-4" value="" style="html=1;points=[];perimeter=orthogonalPerimeter;outlineConnect=0;targetShapes=umlLifeline;portConstraint=eastwest;newEdgeStyle={&quot;edgeStyle&quot;:&quot;elbowEdgeStyle&quot;,&quot;elbow&quot;:&quot;vertical&quot;,&quot;curved&quot;:0,&quot;rounded&quot;:0};" vertex="1" parent="1">
          <mxGeometry x="180" y="160" width="20" height="430" as="geometry" />
        </mxCell>
        <mxCell id="DgYxm51xzqyq3N8vLG9s-9" style="edgeStyle=orthogonalEdgeStyle;rounded=0;orthogonalLoop=1;jettySize=auto;html=1;endArrow=none;endFill=0;dashed=1;" edge="1" parent="1">
          <mxGeometry relative="1" as="geometry">
            <mxPoint x="400" y="160" as="targetPoint" />
            <mxPoint x="400" y="100" as="sourcePoint" />
          </mxGeometry>
        </mxCell>
        <mxCell id="DgYxm51xzqyq3N8vLG9s-7" value=":Приложение" style="rounded=1;whiteSpace=wrap;html=1;" vertex="1" parent="1">
          <mxGeometry x="340" y="50" width="120" height="60" as="geometry" />
        </mxCell>
        <mxCell id="DgYxm51xzqyq3N8vLG9s-8" value="" style="html=1;points=[];perimeter=orthogonalPerimeter;outlineConnect=0;targetShapes=umlLifeline;portConstraint=eastwest;newEdgeStyle={&quot;edgeStyle&quot;:&quot;elbowEdgeStyle&quot;,&quot;elbow&quot;:&quot;vertical&quot;,&quot;curved&quot;:0,&quot;rounded&quot;:0};" vertex="1" parent="1">
          <mxGeometry x="390" y="160" width="20" height="430" as="geometry" />
        </mxCell>
        <mxCell id="DgYxm51xzqyq3N8vLG9s-10" value="" style="endArrow=classic;html=1;rounded=0;" edge="1" parent="1" target="DgYxm51xzqyq3N8vLG9s-8">
          <mxGeometry width="50" height="50" relative="1" as="geometry">
            <mxPoint x="200" y="180" as="sourcePoint" />
            <mxPoint x="290" y="160" as="targetPoint" />
          </mxGeometry>
        </mxCell>
        <mxCell id="DgYxm51xzqyq3N8vLG9s-12" value="созданиеФайла()" style="text;html=1;align=center;verticalAlign=middle;resizable=0;points=[];autosize=1;strokeColor=none;fillColor=none;" vertex="1" parent="1">
          <mxGeometry x="240" y="150" width="120" height="30" as="geometry" />
        </mxCell>
        <mxCell id="DgYxm51xzqyq3N8vLG9s-14" value="" style="endArrow=classic;html=1;rounded=0;" edge="1" parent="1">
          <mxGeometry width="50" height="50" relative="1" as="geometry">
            <mxPoint x="390" y="220" as="sourcePoint" />
            <mxPoint x="200" y="220" as="targetPoint" />
          </mxGeometry>
        </mxCell>
        <mxCell id="DgYxm51xzqyq3N8vLG9s-15" value="выводТаблицы()" style="text;html=1;align=center;verticalAlign=middle;resizable=0;points=[];autosize=1;strokeColor=none;fillColor=none;" vertex="1" parent="1">
          <mxGeometry x="240" y="190" width="120" height="30" as="geometry" />
        </mxCell>
        <mxCell id="DgYxm51xzqyq3N8vLG9s-16" value="" style="endArrow=classic;html=1;rounded=0;" edge="1" parent="1">
          <mxGeometry width="50" height="50" relative="1" as="geometry">
            <mxPoint x="200" y="270" as="sourcePoint" />
            <mxPoint x="390" y="270" as="targetPoint" />
          </mxGeometry>
        </mxCell>
        <mxCell id="DgYxm51xzqyq3N8vLG9s-17" value="редактированиеИнформации()" style="text;html=1;align=center;verticalAlign=middle;resizable=0;points=[];autosize=1;strokeColor=none;fillColor=none;" vertex="1" parent="1">
          <mxGeometry x="190" y="240" width="200" height="30" as="geometry" />
        </mxCell>
        <mxCell id="DgYxm51xzqyq3N8vLG9s-18" value="alt" style="shape=umlFrame;whiteSpace=wrap;html=1;pointerEvents=0;" vertex="1" parent="1">
          <mxGeometry x="110" y="340" width="390" height="200" as="geometry" />
        </mxCell>
        <mxCell id="DgYxm51xzqyq3N8vLG9s-19" value="if ДанныеВалидны" style="text;html=1;align=center;verticalAlign=middle;resizable=0;points=[];autosize=1;strokeColor=none;fillColor=none;" vertex="1" parent="1">
          <mxGeometry x="110" y="370" width="130" height="30" as="geometry" />
        </mxCell>
        <mxCell id="DgYxm51xzqyq3N8vLG9s-20" value="" style="endArrow=none;dashed=1;html=1;rounded=0;" edge="1" parent="1">
          <mxGeometry width="50" height="50" relative="1" as="geometry">
            <mxPoint x="110" y="439.5" as="sourcePoint" />
            <mxPoint x="500" y="439.5" as="targetPoint" />
          </mxGeometry>
        </mxCell>
        <mxCell id="DgYxm51xzqyq3N8vLG9s-22" value="" style="endArrow=classic;html=1;rounded=0;" edge="1" parent="1">
          <mxGeometry width="50" height="50" relative="1" as="geometry">
            <mxPoint x="200" y="320" as="sourcePoint" />
            <mxPoint x="390" y="320" as="targetPoint" />
          </mxGeometry>
        </mxCell>
        <mxCell id="DgYxm51xzqyq3N8vLG9s-23" value="запускАнализа()" style="text;html=1;align=center;verticalAlign=middle;resizable=0;points=[];autosize=1;strokeColor=none;fillColor=none;" vertex="1" parent="1">
          <mxGeometry x="230" y="290" width="120" height="30" as="geometry" />
        </mxCell>
        <mxCell id="DgYxm51xzqyq3N8vLG9s-24" value="" style="endArrow=classic;html=1;rounded=0;" edge="1" parent="1">
          <mxGeometry width="50" height="50" relative="1" as="geometry">
            <mxPoint x="200" y="420" as="sourcePoint" />
            <mxPoint x="390" y="420" as="targetPoint" />
          </mxGeometry>
        </mxCell>
        <mxCell id="DgYxm51xzqyq3N8vLG9s-25" value="расчет()" style="text;html=1;align=center;verticalAlign=middle;resizable=0;points=[];autosize=1;strokeColor=none;fillColor=none;" vertex="1" parent="1">
          <mxGeometry x="255" y="390" width="70" height="30" as="geometry" />
        </mxCell>
        <mxCell id="DgYxm51xzqyq3N8vLG9s-26" value="else" style="text;html=1;align=center;verticalAlign=middle;resizable=0;points=[];autosize=1;strokeColor=none;fillColor=none;" vertex="1" parent="1">
          <mxGeometry x="120" y="450" width="50" height="30" as="geometry" />
        </mxCell>
        <mxCell id="DgYxm51xzqyq3N8vLG9s-27" value="" style="endArrow=classic;html=1;rounded=0;" edge="1" parent="1">
          <mxGeometry width="50" height="50" relative="1" as="geometry">
            <mxPoint x="200" y="500" as="sourcePoint" />
            <mxPoint x="390" y="500" as="targetPoint" />
          </mxGeometry>
        </mxCell>
        <mxCell id="DgYxm51xzqyq3N8vLG9s-28" value="созданиеОшибки()" style="text;html=1;align=center;verticalAlign=middle;resizable=0;points=[];autosize=1;strokeColor=none;fillColor=none;" vertex="1" parent="1">
          <mxGeometry x="225" y="470" width="130" height="30" as="geometry" />
        </mxCell>
        <mxCell id="DgYxm51xzqyq3N8vLG9s-29" value="" style="endArrow=classic;html=1;rounded=0;dashed=1;" edge="1" parent="1">
          <mxGeometry width="50" height="50" relative="1" as="geometry">
            <mxPoint x="390" y="590" as="sourcePoint" />
            <mxPoint x="200" y="590" as="targetPoint" />
          </mxGeometry>
        </mxCell>
        <mxCell id="DgYxm51xzqyq3N8vLG9s-30" value="получитьОтвет()" style="text;html=1;align=center;verticalAlign=middle;resizable=0;points=[];autosize=1;strokeColor=none;fillColor=none;" vertex="1" parent="1">
          <mxGeometry x="235" y="560" width="110" height="30" as="geometry" />
        </mxCell>
        <mxCell id="DgYxm51xzqyq3N8vLG9s-31" style="edgeStyle=orthogonalEdgeStyle;rounded=0;orthogonalLoop=1;jettySize=auto;html=1;endArrow=none;endFill=0;dashed=1;" edge="1" parent="1">
          <mxGeometry relative="1" as="geometry">
            <mxPoint x="189" y="650" as="targetPoint" />
            <mxPoint x="189" y="590" as="sourcePoint" />
          </mxGeometry>
        </mxCell>
        <mxCell id="DgYxm51xzqyq3N8vLG9s-32" style="edgeStyle=orthogonalEdgeStyle;rounded=0;orthogonalLoop=1;jettySize=auto;html=1;endArrow=none;endFill=0;dashed=1;" edge="1" parent="1">
          <mxGeometry relative="1" as="geometry">
            <mxPoint x="399.5" y="650" as="targetPoint" />
            <mxPoint x="399.5" y="590" as="sourcePoint" />
          </mxGeometry>
        </mxCell>
      </root>
    </mxGraphModel>
  </diagram>
</mxfile>
